<svg width="19" height="19" viewBox="0 0 19 19" fill="none" xmlns="http://www.w3.org/2000/svg">
<path d="M8.52028 2.36768V6.14816C8.52028 6.46119 8.45844 6.77114 8.33829 7.06022C8.21814 7.3493 8.04206 7.61182 7.82015 7.83271C7.59824 8.0536 7.33486 8.22852 7.04515 8.34742C6.75543 8.46632 6.44507 8.52687 6.13188 8.52558H2.36893C2.05659 8.52748 1.74708 8.46632 1.45896 8.34577C1.17083 8.22522 0.910027 8.04777 0.692176 7.82405C0.471437 7.6045 0.296571 7.34327 0.177747 7.05557C0.0589231 6.76786 -0.00148751 6.45941 2.78165e-05 6.14816V2.37742C2.25325e-05 1.74857 0.249291 1.14534 0.693269 0.699766C1.13725 0.254192 1.73976 0.00257724 2.36893 0H6.14163C6.45365 0.000299628 6.76251 0.0624585 7.05032 0.182878C7.33814 0.303297 7.5992 0.479585 7.81838 0.701534C8.04059 0.918467 8.21716 1.17762 8.3377 1.46375C8.45824 1.74988 8.52032 2.05722 8.52028 2.36768ZM19 2.37742V6.14816C18.9949 6.77545 18.744 7.37576 18.3012 7.82024C17.8583 8.26472 17.2587 8.51795 16.6311 8.52558H12.8486C12.2181 8.52173 11.6136 8.27377 11.1621 7.83379C10.9415 7.61212 10.7669 7.34913 10.6481 7.05988C10.5293 6.77064 10.4688 6.46082 10.47 6.14816V2.37742C10.4687 2.06532 10.5301 1.75614 10.6507 1.46824C10.7713 1.18034 10.9485 0.919611 11.1719 0.701534C11.3911 0.479585 11.6521 0.303297 11.94 0.182878C12.2278 0.0624585 12.5366 0.000299628 12.8486 0H16.6213C17.2506 0.00509301 17.8527 0.257206 18.2977 0.701959C18.7427 1.14671 18.9949 1.74846 19 2.37742ZM19 12.8517V16.6225C18.9949 17.2497 18.744 17.85 18.3012 18.2945C17.8583 18.739 17.2587 18.9922 16.6311 18.9999H12.8486C12.2141 19.0063 11.6021 18.7651 11.1426 18.3276C10.9212 18.1065 10.7459 17.8437 10.6271 17.5543C10.5083 17.2649 10.4482 16.9548 10.4505 16.6419V12.8712C10.4492 12.5591 10.5107 12.2499 10.6313 11.962C10.7518 11.6742 10.9291 11.4134 11.1524 11.1953C11.3716 10.9734 11.6327 10.7971 11.9205 10.6767C12.2083 10.5563 12.5171 10.4941 12.8292 10.4938H16.6019C17.2311 10.4989 17.8332 10.751 18.2782 11.1957C18.7232 11.6405 18.9754 12.2422 18.9805 12.8712L19 12.8517ZM8.52028 12.8615V16.6322C8.51261 17.2611 8.2579 17.8619 7.81109 18.3048C7.36429 18.7477 6.76119 18.9974 6.13188 18.9999H2.36893C2.05748 19.0012 1.74886 18.9408 1.46087 18.8223C1.17288 18.7037 0.911218 18.5294 0.690988 18.3093C0.470758 18.0892 0.296315 17.8276 0.177723 17.5398C0.0591313 17.2519 -0.00126185 16.9435 2.78165e-05 16.6322V12.8615C0.00253925 12.2325 0.252313 11.6297 0.695475 11.1831C1.13864 10.7365 1.73967 10.482 2.36893 10.4743H6.14163C6.77375 10.4797 7.3788 10.7314 7.82813 11.1758C8.27276 11.6241 8.52162 12.2302 8.52028 12.8615Z" fill="#376AEA"/>
</svg>
