<svg width="10" height="20" viewBox="0 0 10 20" fill="none" xmlns="http://www.w3.org/2000/svg">
<path d="M0.519132 9.12385L0.669605 9.11032C0.724089 9.10401 0.776193 9.08346 0.821152 9.05056L0.820077 9.05169C0.964101 9.5726 1.14037 10.1206 1.36071 10.6945C1.64338 11.4454 1.92175 12.0622 2.23345 12.6575L2.19046 12.5673C2.16466 12.9777 2.13349 13.3994 2.09265 13.8075C2.07475 14.0483 2.02817 14.2858 1.954 14.5145L1.95937 14.4942C1.94647 14.4998 1.9282 16.8394 1.9282 16.8394C1.9286 17.5654 2.16183 18.2701 2.59036 18.8401C3.01888 19.4101 3.61777 19.8122 4.29063 19.9818L4.31212 19.9863C4.34201 19.9049 4.39463 19.8349 4.46309 19.7854C4.53156 19.7359 4.61268 19.7093 4.69583 19.709H5.31277C5.39516 19.7101 5.47539 19.7367 5.54344 19.7855C5.6115 19.8342 5.66435 19.9029 5.6954 19.9829L5.69648 19.9863C6.37504 19.8218 6.98077 19.4217 7.41558 18.851C7.85039 18.2803 8.08881 17.5723 8.09222 16.8417C8.09222 16.8417 8.0546 14.5111 8.03525 14.4953C7.9712 14.2774 7.92728 14.0535 7.90413 13.8267L7.90305 13.8098C7.86543 13.3994 7.84071 12.9878 7.80525 12.5695C8.07072 12.0667 8.3491 11.451 8.59415 10.8162L8.635 10.6967C8.85533 10.1228 9.02623 9.57598 9.17562 9.05394C9.21978 9.08684 9.2712 9.1074 9.32502 9.1137H9.3261L9.47764 9.12723C9.66036 9.14753 9.82158 8.98968 9.83663 8.74501L10 6.56777V6.56552C9.99991 6.4779 9.96942 6.39332 9.91425 6.32755C9.85907 6.26178 9.78296 6.21932 9.70013 6.2081H9.67971C9.82284 5.07437 9.73418 3.92166 9.4196 2.82668L9.43358 2.88418C9.13042 2.17804 8.66935 1.55904 8.08949 1.07971C7.50964 0.60038 6.82811 0.274866 6.10275 0.130792L6.07481 0.126282C5.72313 0.0523145 5.36607 0.0100663 5.00752 0H4.98495C4.60988 0.00704596 4.23631 0.0515965 3.8693 0.133047L3.908 0.126282C3.18302 0.267447 2.50083 0.588741 1.91852 1.06327C1.33621 1.5378 0.870734 2.15175 0.561049 2.85374L0.549226 2.88418C0.239785 3.97495 0.157314 5.12271 0.307395 6.24981L0.303096 6.2081C0.220045 6.21753 0.14322 6.25873 0.0873052 6.32383C0.0313903 6.38894 0.000308179 6.47338 0 6.56101V6.5689L0.163371 8.74613C0.178418 8.99644 0.341788 9.14753 0.518057 9.12723L0.519132 9.12385Z" fill="black"/>
</svg>
