<svg width="36" height="36" viewBox="0 0 36 36" fill="none" xmlns="http://www.w3.org/2000/svg">
<path d="M6.75 30.375C6.30499 30.375 5.86998 30.243 5.49997 29.9958C5.12996 29.7486 4.84157 29.3972 4.67127 28.986C4.50097 28.5749 4.45642 28.1225 4.54323 27.686C4.63005 27.2496 4.84434 26.8487 5.15901 26.534C5.47368 26.2193 5.87459 26.0051 6.31105 25.9182C6.74751 25.8314 7.19991 25.876 7.61104 26.0463C8.02217 26.2166 8.37357 26.505 8.62081 26.875C8.86804 27.245 9 27.68 9 28.125C9 28.7217 8.76295 29.294 8.34099 29.716C7.91903 30.1379 7.34674 30.375 6.75 30.375Z" fill="white"/>
<path d="M29.25 30.375C28.805 30.375 28.37 30.243 28 29.9958C27.63 29.7486 27.3416 29.3972 27.1713 28.986C27.001 28.5749 26.9564 28.1225 27.0432 27.686C27.1301 27.2496 27.3443 26.8487 27.659 26.534C27.9737 26.2193 28.3746 26.0051 28.811 25.9182C29.2475 25.8314 29.6999 25.876 30.111 26.0463C30.5222 26.2166 30.8736 26.505 31.1208 26.875C31.368 27.245 31.5 27.68 31.5 28.125C31.5 28.7217 31.2629 29.294 30.841 29.716C30.419 30.1379 29.8467 30.375 29.25 30.375Z" fill="white"/>
<path d="M33.75 12.375C33.4516 12.375 33.1655 12.4935 32.9545 12.7045C32.7435 12.9155 32.625 13.2016 32.625 13.5V14.625H12.375V13.5C12.375 12.6049 12.0194 11.7464 11.3865 11.1135C10.7536 10.4806 9.89511 10.125 9 10.125H4.5C4.11588 10.1287 3.73529 10.1988 3.375 10.332V6.75C3.375 6.45163 3.25647 6.16548 3.0455 5.95451C2.83452 5.74353 2.54837 5.625 2.25 5.625C1.95163 5.625 1.66548 5.74353 1.4545 5.95451C1.24353 6.16548 1.125 6.45163 1.125 6.75V20.25C1.125 20.5484 1.24353 20.8345 1.4545 21.0455C1.66548 21.2565 1.95163 21.375 2.25 21.375H5.625V24.957C6.3496 24.681 7.1504 24.681 7.875 24.957V21.375H28.125V24.957C28.8496 24.681 29.6504 24.681 30.375 24.957V21.375H33.75C34.0484 21.375 34.3345 21.2565 34.5455 21.0455C34.7565 20.8345 34.875 20.5484 34.875 20.25V13.5C34.875 13.2016 34.7565 12.9155 34.5455 12.7045C34.3345 12.4935 34.0484 12.375 33.75 12.375ZM10.125 14.625H3.375V13.5C3.375 13.2016 3.49353 12.9155 3.7045 12.7045C3.91548 12.4935 4.20163 12.375 4.5 12.375H9C9.29837 12.375 9.58452 12.4935 9.7955 12.7045C10.0065 12.9155 10.125 13.2016 10.125 13.5V14.625Z" fill="white"/>
</svg>
