<svg width="27" height="28" viewBox="0 0 27 28" fill="none" xmlns="http://www.w3.org/2000/svg">
<path d="M26.0271 22.96L17.3964 9.76383V3.45567H19.4015V0H7.15875V3.45917H9.18023V9.76733L0.533184 22.96C0.209859 23.4514 0.0261934 24.0205 0.00161701 24.6072C-0.0229594 25.1938 0.112467 25.7761 0.39357 26.2925C0.674673 26.809 1.091 27.2403 1.59851 27.5408C2.10601 27.8414 2.68583 28 3.27662 28H23.2731C23.8649 27.9991 24.4455 27.8394 24.9536 27.5377C25.4617 27.236 25.8785 26.8036 26.1598 26.2861C26.4411 25.7686 26.5767 25.1852 26.552 24.5975C26.5274 24.0098 26.3436 23.4397 26.02 22.9472L26.0282 22.96H26.0271ZM24.9647 25.6457C24.8002 25.9469 24.557 26.1984 24.2607 26.3737C23.9645 26.5491 23.6261 26.6417 23.2813 26.642H3.27662C2.93029 26.6425 2.59027 26.5499 2.29262 26.3739C1.99496 26.1979 1.75076 25.9452 1.5859 25.6425C1.42104 25.3398 1.34166 24.9984 1.35617 24.6545C1.37069 24.3107 1.47856 23.9771 1.66836 23.6892L1.66366 23.6962L10.5255 10.1628V3.45333H16.0265V10.1663L24.879 23.6997C25.0785 23.9925 25.1983 24.3542 25.1983 24.7438C25.1983 25.0763 25.1114 25.389 24.9588 25.6597L24.9635 25.6503L24.9647 25.6457Z" fill="black"/>
</svg>
