<svg width="27" height="26" viewBox="0 0 27 26" fill="none" xmlns="http://www.w3.org/2000/svg">
<path d="M24.3334 13.0003H10.8751M21.5001 17.2503L25.7501 13.0003L21.5001 8.75033M14.4167 5.91699V4.50033C14.4167 3.74888 14.1182 3.02821 13.5869 2.49686C13.0555 1.9655 12.3349 1.66699 11.5834 1.66699H4.50008C3.74863 1.66699 3.02797 1.9655 2.49661 2.49686C1.96526 3.02821 1.66675 3.74888 1.66675 4.50033V21.5003C1.66675 22.2518 1.96526 22.9724 2.49661 23.5038C3.02797 24.0351 3.74863 24.3337 4.50008 24.3337H11.5834C12.3349 24.3337 13.0555 24.0351 13.5869 23.5038C14.1182 22.9724 14.4167 22.2518 14.4167 21.5003V20.0837" stroke="black" stroke-width="2" stroke-linecap="round" stroke-linejoin="round"/>
</svg>
