<svg width="28" height="29" viewBox="0 0 28 29" fill="none" xmlns="http://www.w3.org/2000/svg">
<path fill-rule="evenodd" clip-rule="evenodd" d="M13.9307 0.666504C12.732 0.666504 11.7334 0.666504 10.9414 0.773171C10.104 0.885171 9.34802 1.13317 8.74135 1.73984C8.13335 2.34784 7.88535 3.10384 7.77335 3.93984C7.66669 4.73317 7.66669 5.73317 7.66669 6.9305V7.0345C4.97202 7.1225 3.35335 7.43717 2.22935 8.5625C0.666687 10.1238 0.666687 12.6385 0.666687 17.6665C0.666687 22.6945 0.666687 25.2092 2.22935 26.7705C3.79069 28.3332 6.30535 28.3332 11.3334 28.3332H16.6667C21.6947 28.3332 24.2094 28.3332 25.7707 26.7705C27.3334 25.2092 27.3334 22.6945 27.3334 17.6665C27.3334 12.6385 27.3334 10.1238 25.7707 8.5625C24.6467 7.43717 23.028 7.1225 20.3334 7.0345V6.9305C20.3334 5.73317 20.3334 4.73317 20.2267 3.94117C20.1147 3.10384 19.8667 2.34784 19.2587 1.74117C18.652 1.13317 17.896 0.885171 17.0587 0.773171C16.2667 0.666504 15.2667 0.666504 14.0694 0.666504H13.9307ZM18.3334 7.0025V6.99984C18.3334 5.7145 18.3307 4.8505 18.2454 4.2065C18.1614 3.59184 18.0187 3.32784 17.8454 3.1545C17.672 2.98117 17.408 2.8385 16.792 2.7545C16.1494 2.66917 15.2854 2.6665 14 2.6665C12.7147 2.6665 11.8507 2.66917 11.2067 2.75584C10.592 2.8385 10.328 2.98117 10.1547 3.15584C9.98135 3.32917 9.83869 3.59184 9.75469 4.2065C9.67069 4.8505 9.66669 5.7145 9.66669 6.99984V7.0025C10.1894 6.99984 10.744 6.99984 11.3334 6.99984H16.6667C17.256 6.99984 17.8107 6.99984 18.3334 7.0025ZM19.3334 17.6665C19.3334 19.081 18.7715 20.4375 17.7713 21.4377C16.7711 22.4379 15.4145 22.9998 14 22.9998C12.5855 22.9998 11.229 22.4379 10.2288 21.4377C9.22859 20.4375 8.66669 19.081 8.66669 17.6665C8.66669 16.252 9.22859 14.8955 10.2288 13.8953C11.229 12.8951 12.5855 12.3332 14 12.3332C15.4145 12.3332 16.7711 12.8951 17.7713 13.8953C18.7715 14.8955 19.3334 16.252 19.3334 17.6665Z" fill="black"/>
</svg>
