<svg width="24" height="29" viewBox="0 0 24 29" fill="none" xmlns="http://www.w3.org/2000/svg">
<path d="M6.88875 18.0433L12 23.4218L17.1112 18.0433C20.9411 18.2181 24 21.5166 24 25.587C24 26.4575 23.6715 27.2923 23.0866 27.9078C22.5018 28.5233 21.7087 28.8691 20.8816 28.8691H3.11839C2.29134 28.8691 1.49817 28.5233 0.913357 27.9078C0.328545 27.2923 0 26.4575 0 25.587C0 21.5166 3.05893 18.2181 6.88875 18.0433ZM12 17.1411C10.1814 17.1411 8.43723 16.3808 7.15127 15.0273C5.8653 13.6738 5.14286 11.8381 5.14286 9.92392V3.71147C5.14243 3.34385 5.24871 2.98485 5.44747 2.68255C5.64622 2.38025 5.92797 2.14906 6.255 2.01993L10.7962 0.229723C11.5724 -0.0765744 12.4276 -0.0765744 13.2037 0.229723L17.745 2.02219C18.0717 2.15118 18.3532 2.38203 18.5519 2.68388C18.7506 2.98574 18.8571 3.34423 18.8571 3.71147V9.92392C18.8571 11.8381 18.1347 13.6738 16.8487 15.0273C15.5628 16.3808 13.8186 17.1411 12 17.1411ZM14.1429 4.04132C14.1429 3.96655 14.1146 3.89484 14.0644 3.84197C14.0142 3.7891 13.946 3.7594 13.875 3.7594H12.7141V2.53754C12.7141 2.46277 12.6859 2.39107 12.6357 2.33819C12.5854 2.28532 12.5173 2.25562 12.4462 2.25562H11.5538C11.4827 2.25562 11.4146 2.28532 11.3643 2.33819C11.3141 2.39107 11.2859 2.46277 11.2859 2.53754V3.7594H10.125C10.054 3.7594 9.98583 3.7891 9.9356 3.84197C9.88536 3.89484 9.85714 3.96655 9.85714 4.04132V4.98069C9.85714 5.05546 9.88536 5.12717 9.9356 5.18004C9.98583 5.23291 10.054 5.26261 10.125 5.26261H11.2859V6.48446C11.2859 6.55924 11.3141 6.63094 11.3643 6.68381C11.4146 6.73668 11.4827 6.76639 11.5538 6.76639H12.4462C12.5173 6.76639 12.5854 6.73668 12.6357 6.68381C12.6859 6.63094 12.7141 6.55924 12.7141 6.48446V5.26261H13.875C13.946 5.26261 14.0142 5.23291 14.0644 5.18004C14.1146 5.12717 14.1429 5.05546 14.1429 4.98069V4.04132ZM16.2857 9.02177H7.71428V9.92392C7.71428 11.1203 8.16581 12.2676 8.96954 13.1135C9.77327 13.9595 10.8634 14.4347 12 14.4347C13.1366 14.4347 14.2267 13.9595 15.0305 13.1135C15.8342 12.2676 16.2857 11.1203 16.2857 9.92392V9.02177Z" fill="black"/>
</svg>
