<svg width="30" height="31" viewBox="0 0 30 31" fill="none" xmlns="http://www.w3.org/2000/svg">
<path fill-rule="evenodd" clip-rule="evenodd" d="M22.0926 1.44793L17.5943 8.49935H24.6412L27.1189 4.68678C27.5484 4.01995 27.6954 3.20982 27.5276 2.43459C27.3598 1.65937 26.8909 0.982567 26.224 0.553068C25.5572 0.123569 24.7471 -0.0234418 23.9718 0.144376C23.1966 0.312195 22.5221 0.781095 22.0926 1.44793ZM1.43888 19.2239L0.776027 13.3268C0.740329 13.0072 0.772481 12.6836 0.870382 12.3773C0.968283 12.0709 1.12973 11.7887 1.34417 11.549C1.55861 11.3093 1.82121 11.1176 2.11482 10.9864C2.40842 10.8551 2.72642 10.7873 3.04803 10.7874H26.952C27.2738 10.7873 27.5921 10.8551 27.8858 10.9865C28.1796 11.1179 28.4423 11.3098 28.6568 11.5498C28.8713 11.7897 29.0327 12.0722 29.1304 12.3788C29.2282 12.6855 29.2601 13.0093 29.224 13.3291L28.5612 19.2262C28.3976 20.6842 27.8853 22.0813 27.0677 23.2995C26.2502 24.5178 25.1513 25.5212 23.864 26.2251C24.2206 26.9268 24.472 27.6948 24.5955 28.5108C24.6353 28.7763 24.6173 29.0473 24.5427 29.3053C24.4682 29.5632 24.3388 29.802 24.1634 30.0054C23.9881 30.2087 23.7709 30.3718 23.5267 30.4835C23.2825 30.5952 23.0171 30.6528 22.7486 30.6525H7.25145C6.98294 30.6528 6.71753 30.5952 6.47335 30.4835C6.22916 30.3718 6.01197 30.2087 5.83662 30.0054C5.66127 29.802 5.53189 29.5632 5.45733 29.3053C5.38277 29.0473 5.36478 28.7763 5.4046 28.5108C5.52331 27.7144 5.77032 26.9425 6.13603 26.2251C4.84847 25.521 3.74942 24.5172 2.93182 23.2985C2.11423 22.0799 1.60215 20.6823 1.43888 19.2239ZM16.4286 16.3096C16.4286 15.9308 16.2781 15.5674 16.0102 15.2995C15.7423 15.0316 15.3789 14.8811 15 14.8811C14.6211 14.8811 14.2578 15.0316 13.9899 15.2995C13.722 15.5674 13.5715 15.9308 13.5715 16.3096V19.2902H10.5909C10.212 19.2902 9.84864 19.4407 9.58073 19.7086C9.31282 19.9765 9.16231 20.3399 9.16231 20.7188C9.16231 21.0977 9.31282 21.461 9.58073 21.7289C9.84864 21.9968 10.212 22.1474 10.5909 22.1474H13.5715V25.1302C13.5715 25.5091 13.722 25.8725 13.9899 26.1404C14.2578 26.4083 14.6211 26.5588 15 26.5588C15.3789 26.5588 15.7423 26.4083 16.0102 26.1404C16.2781 25.8725 16.4286 25.5091 16.4286 25.1302V22.1496H19.4092C19.788 22.1496 20.1514 21.9991 20.4193 21.7312C20.6872 21.4633 20.8377 21.1 20.8377 20.7211C20.8377 20.3422 20.6872 19.9788 20.4193 19.7109C20.1514 19.443 19.788 19.2925 19.4092 19.2925H16.4286V16.3051V16.3096Z" fill="black"/>
</svg>
