<svg width="25" height="26" viewBox="0 0 25 26" fill="none" xmlns="http://www.w3.org/2000/svg">
<path fill-rule="evenodd" clip-rule="evenodd" d="M14.8487 0.69C14.3862 0.5 13.7987 0.5 12.6249 0.5C11.4512 0.5 10.8649 0.5 10.4012 0.69C9.78547 0.942764 9.29538 1.42971 9.03866 2.04375C8.92116 2.3225 8.87616 2.64875 8.85741 3.1225C8.84907 3.46575 8.75332 3.80121 8.57922 4.09715C8.40511 4.39309 8.1584 4.63973 7.86241 4.81375C7.56084 4.98138 7.22184 5.07018 6.87681 5.07193C6.53179 5.07368 6.19191 4.98831 5.88866 4.82375C5.46616 4.60125 5.15991 4.47875 4.85741 4.43875C4.1956 4.35185 3.52625 4.52975 2.99491 4.93375C2.59741 5.23625 2.30366 5.74125 1.71741 6.75C1.12991 7.75875 0.837406 8.2625 0.771156 8.75625C0.683656 9.41375 0.863656 10.0787 1.27116 10.605C1.45616 10.845 1.71741 11.0463 2.12116 11.2987C2.71741 11.67 3.09991 12.3025 3.09991 13C3.09991 13.6975 2.71741 14.33 2.12241 14.7C1.71741 14.9537 1.45616 15.155 1.26991 15.395C1.06876 15.6549 0.921118 15.9521 0.835512 16.2695C0.749905 16.5868 0.728032 16.9179 0.771156 17.2438C0.837406 17.7362 1.12991 18.2412 1.71741 19.25C2.30491 20.2588 2.59741 20.7625 2.99491 21.0662C3.52491 21.47 4.19491 21.6475 4.85741 21.5613C5.15991 21.5213 5.46616 21.3988 5.88866 21.1763C6.19206 21.0115 6.53218 20.926 6.87744 20.9277C7.2227 20.9295 7.56193 21.0184 7.86366 21.1862C8.47116 21.5362 8.83116 22.18 8.85741 22.8775C8.87616 23.3525 8.92116 23.6775 9.03866 23.9562C9.29366 24.5687 9.78366 25.0562 10.4012 25.31C10.8637 25.5 11.4512 25.5 12.6249 25.5C13.7987 25.5 14.3862 25.5 14.8487 25.31C15.4643 25.0572 15.9544 24.5703 16.2112 23.9562C16.3287 23.6775 16.3737 23.3525 16.3924 22.8775C16.4174 22.18 16.7787 21.535 17.3874 21.1862C17.689 21.0186 18.028 20.9298 18.373 20.9281C18.718 20.9263 19.0579 21.0117 19.3612 21.1763C19.7837 21.3988 20.0899 21.5213 20.3924 21.5613C21.0549 21.6488 21.7249 21.47 22.2549 21.0662C22.6524 20.7637 22.9462 20.2588 23.5324 19.25C24.1199 18.2412 24.4124 17.7375 24.4787 17.2438C24.5216 16.9178 24.4995 16.5867 24.4137 16.2693C24.3279 15.952 24.18 15.6548 23.9787 15.395C23.7937 15.155 23.5324 14.9537 23.1287 14.7013C22.5324 14.33 22.1499 13.6975 22.1499 13C22.1499 12.3025 22.5324 11.67 23.1274 11.3C23.5324 11.0463 23.7937 10.845 23.9799 10.605C24.1811 10.3451 24.3287 10.0479 24.4143 9.73054C24.4999 9.41322 24.5218 9.08208 24.4787 8.75625C24.4124 8.26375 24.1199 7.75875 23.5324 6.75C22.9449 5.74125 22.6524 5.2375 22.2549 4.93375C21.7236 4.52975 21.0542 4.35185 20.3924 4.43875C20.0899 4.47875 19.7837 4.60125 19.3612 4.82375C19.0578 4.98854 18.7176 5.07402 18.3724 5.07227C18.0271 5.07052 17.6879 4.9816 17.3862 4.81375C17.0904 4.63958 16.8439 4.39287 16.6701 4.09694C16.4962 3.80101 16.4006 3.46563 16.3924 3.1225C16.3737 2.6475 16.3287 2.3225 16.2112 2.04375C16.0841 1.73967 15.8984 1.4636 15.6646 1.23132C15.4308 0.999041 15.1536 0.815097 14.8487 0.69ZM12.6249 16.75C14.7124 16.75 16.4037 15.0712 16.4037 13C16.4037 10.9288 14.7112 9.25 12.6249 9.25C10.5374 9.25 8.84616 10.9288 8.84616 13C8.84616 15.0712 10.5387 16.75 12.6249 16.75Z" fill="black"/>
</svg>
